<svg width="17" height="17" viewBox="0 0 17 17" fill="none" xmlns="http://www.w3.org/2000/svg">
<path d="M9.46717 8.3683L16.2055 0.336272C16.3184 0.20279 16.2234 0 16.0489 0H14.0004C13.8798 0 13.7643 0.0539062 13.6847 0.146317L8.12722 6.77165L2.56974 0.146317C2.49273 0.0539062 2.37721 0 2.254 0H0.205563C0.0310093 0 -0.0639685 0.20279 0.0489779 0.336272L6.78726 8.3683L0.0489779 16.4003C0.0236769 16.4301 0.00744531 16.4665 0.00220965 16.5052C-0.00302602 16.5439 0.00295414 16.5833 0.0194408 16.6187C0.0359274 16.6541 0.062228 16.684 0.0952194 16.7049C0.128211 16.7258 0.166507 16.7368 0.205563 16.7366H2.254C2.37465 16.7366 2.49016 16.6827 2.56974 16.5903L8.12722 9.96496L13.6847 16.5903C13.7617 16.6827 13.8772 16.7366 14.0004 16.7366H16.0489C16.2234 16.7366 16.3184 16.5338 16.2055 16.4003L9.46717 8.3683Z" fill="#101010"/>
</svg>
