<svg width="28" height="27" viewBox="0 0 28 27" fill="none" xmlns="http://www.w3.org/2000/svg">
<path d="M7.22305 13.5C7.22305 13.2812 7.30997 13.0714 7.46468 12.9167C7.6194 12.762 7.82924 12.675 8.04805 12.675H12.998V7.72505C12.998 7.50625 13.085 7.2964 13.2397 7.14169C13.3944 6.98697 13.6042 6.90005 13.823 6.90005C14.0419 6.90005 14.2517 6.98697 14.4064 7.14169C14.5611 7.2964 14.648 7.50625 14.648 7.72505V12.675H19.598C19.8169 12.675 20.0267 12.762 20.1814 12.9167C20.3361 13.0714 20.423 13.2812 20.423 13.5C20.423 13.7189 20.3361 13.9287 20.1814 14.0834C20.0267 14.2381 19.8169 14.325 19.598 14.325H14.648V19.275C14.648 19.4939 14.5611 19.7037 14.4064 19.8584C14.2517 20.0131 14.0419 20.1 13.823 20.1C13.6042 20.1 13.3944 20.0131 13.2397 19.8584C13.085 19.7037 12.998 19.4939 12.998 19.275V14.325H8.04805C7.82924 14.325 7.6194 14.2381 7.46468 14.0834C7.30997 13.9287 7.22305 13.7189 7.22305 13.5ZM13.823 26.7C17.3239 26.7 20.6814 25.3093 23.1569 22.8339C25.6323 20.3584 27.023 17.0009 27.023 13.5C27.023 9.99919 25.6323 6.64172 23.1569 4.16624C20.6814 1.69076 17.3239 0.300049 13.823 0.300049C10.3222 0.300049 6.96472 1.69076 4.48924 4.16624C2.01376 6.64172 0.623047 9.99919 0.623047 13.5C0.623047 17.0009 2.01376 20.3584 4.48924 22.8339C6.96472 25.3093 10.3222 26.7 13.823 26.7ZM13.823 25.05C12.3063 25.05 10.8044 24.7513 9.40305 24.1709C8.00174 23.5904 6.72848 22.7396 5.65596 21.6671C4.58345 20.5946 3.73268 19.3214 3.15224 17.92C2.5718 16.5187 2.27305 15.0168 2.27305 13.5C2.27305 11.9833 2.5718 10.4814 3.15224 9.08006C3.73268 7.67874 4.58345 6.40548 5.65596 5.33297C6.72848 4.26045 8.00174 3.40968 9.40305 2.82924C10.8044 2.2488 12.3063 1.95005 13.823 1.95005C16.8863 1.95005 19.8241 3.16692 21.9901 5.33297C24.1562 7.49901 25.373 10.4368 25.373 13.5C25.373 16.5633 24.1562 19.5011 21.9901 21.6671C19.8241 23.8332 16.8863 25.05 13.823 25.05Z" fill="#131314"/>
</svg>
