<svg width="18" height="26" viewBox="0 0 18 26" fill="none" xmlns="http://www.w3.org/2000/svg">
<path d="M16.7634 15.877C16.4734 15.5873 16.0802 15.4246 15.6703 15.4246C15.2604 15.4246 14.8672 15.5873 14.5772 15.877L8.96718 21.487L3.35718 15.877C3.21557 15.725 3.04479 15.6031 2.85504 15.5186C2.66529 15.434 2.46046 15.3886 2.25276 15.3849C2.04506 15.3812 1.83875 15.4194 1.64614 15.4972C1.45352 15.575 1.27855 15.6908 1.13167 15.8377C0.984777 15.9846 0.868979 16.1596 0.791178 16.3522C0.713379 16.5448 0.675171 16.7511 0.678835 16.9588C0.682501 17.1665 0.727962 17.3713 0.812508 17.5611C0.897055 17.7508 1.01895 17.9216 1.17093 18.0632L7.87406 24.7664C8.1641 25.056 8.55726 25.2188 8.96718 25.2188C9.3771 25.2188 9.77027 25.056 10.0603 24.7664L16.7634 18.0632C17.0531 17.7732 17.2158 17.38 17.2158 16.9701C17.2158 16.5602 17.0531 16.167 16.7634 15.877ZM16.7634 9.81324C16.4734 10.1029 16.0802 10.2656 15.6703 10.2656C15.2604 10.2656 14.8672 10.1029 14.5772 9.81324L8.96718 4.20324L3.35718 9.81324C3.21557 9.96521 3.04479 10.0871 2.85504 10.1717C2.66529 10.2562 2.46046 10.3017 2.25276 10.3053C2.04506 10.309 1.83875 10.2708 1.64614 10.193C1.45352 10.1152 1.27855 9.99939 1.13167 9.8525C0.984777 9.70561 0.868979 9.53064 0.791178 9.33803C0.713379 9.14542 0.675171 8.93911 0.678835 8.73141C0.682501 8.52371 0.727962 8.31887 0.812508 8.12913C0.897055 7.93938 1.01895 7.7686 1.17093 7.62699L7.87406 0.923862C8.1641 0.634182 8.55726 0.471472 8.96718 0.471472C9.3771 0.471472 9.77027 0.634182 10.0603 0.923862L16.7634 7.62699C17.0531 7.91703 17.2158 8.31019 17.2158 8.72011C17.2158 9.13003 17.0531 9.5232 16.7634 9.81324Z" fill="black" fill-opacity="0.48"/>
</svg>
