<svg width="25" height="26" viewBox="0 0 25 26" fill="none" xmlns="http://www.w3.org/2000/svg">
<path d="M6.88574 14.375C6.52107 14.375 6.17133 14.2301 5.91347 13.9723C5.65561 13.7144 5.51074 13.3647 5.51074 13C5.51074 12.6353 5.65561 12.2856 5.91347 12.0277C6.17133 11.7699 6.52107 11.625 6.88574 11.625C7.25041 11.625 7.60015 11.7699 7.85801 12.0277C8.11588 12.2856 8.26074 12.6353 8.26074 13C8.26074 13.3647 8.11588 13.7144 7.85801 13.9723C7.60015 14.2301 7.25041 14.375 6.88574 14.375V14.375ZM6.88574 19.875C6.52107 19.875 6.17133 19.7301 5.91347 19.4723C5.65561 19.2144 5.51074 18.8647 5.51074 18.5C5.51074 18.1353 5.65561 17.7856 5.91347 17.5277C6.17133 17.2699 6.52107 17.125 6.88574 17.125C7.25041 17.125 7.60015 17.2699 7.85801 17.5277C8.11588 17.7856 8.26074 18.1353 8.26074 18.5C8.26074 18.8647 8.11588 19.2144 7.85801 19.4723C7.60015 19.7301 7.25041 19.875 6.88574 19.875V19.875ZM11.0107 18.5C11.0107 18.8647 11.1556 19.2144 11.4135 19.4723C11.6713 19.7301 12.0211 19.875 12.3857 19.875C12.7504 19.875 13.1002 19.7301 13.358 19.4723C13.6159 19.2144 13.7607 18.8647 13.7607 18.5C13.7607 18.1353 13.6159 17.7856 13.358 17.5277C13.1002 17.2699 12.7504 17.125 12.3857 17.125C12.0211 17.125 11.6713 17.2699 11.4135 17.5277C11.1556 17.7856 11.0107 18.1353 11.0107 18.5ZM17.8857 19.875C17.5211 19.875 17.1713 19.7301 16.9135 19.4723C16.6556 19.2144 16.5107 18.8647 16.5107 18.5C16.5107 18.1353 16.6556 17.7856 16.9135 17.5277C17.1713 17.2699 17.5211 17.125 17.8857 17.125C18.2504 17.125 18.6002 17.2699 18.858 17.5277C19.1159 17.7856 19.2607 18.1353 19.2607 18.5C19.2607 18.8647 19.1159 19.2144 18.858 19.4723C18.6002 19.7301 18.2504 19.875 17.8857 19.875ZM11.0107 13C11.0107 13.3647 11.1556 13.7144 11.4135 13.9723C11.6713 14.2301 12.0211 14.375 12.3857 14.375C12.7504 14.375 13.1002 14.2301 13.358 13.9723C13.6159 13.7144 13.7607 13.3647 13.7607 13C13.7607 12.6353 13.6159 12.2856 13.358 12.0277C13.1002 11.7699 12.7504 11.625 12.3857 11.625C12.0211 11.625 11.6713 11.7699 11.4135 12.0277C11.1556 12.2856 11.0107 12.6353 11.0107 13ZM17.8857 14.375C17.5211 14.375 17.1713 14.2301 16.9135 13.9723C16.6556 13.7144 16.5107 13.3647 16.5107 13C16.5107 12.6353 16.6556 12.2856 16.9135 12.0277C17.1713 11.7699 17.5211 11.625 17.8857 11.625C18.2504 11.625 18.6002 11.7699 18.858 12.0277C19.1159 12.2856 19.2607 12.6353 19.2607 13C19.2607 13.3647 19.1159 13.7144 18.858 13.9723C18.6002 14.2301 18.2504 14.375 17.8857 14.375ZM6.88574 6.125C6.52107 6.125 6.17133 6.26987 5.91347 6.52773C5.65561 6.78559 5.51074 7.13533 5.51074 7.5C5.51074 7.86467 5.65561 8.21441 5.91347 8.47227C6.17133 8.73013 6.52107 8.875 6.88574 8.875H17.8857C18.2504 8.875 18.6002 8.73013 18.858 8.47227C19.1159 8.21441 19.2607 7.86467 19.2607 7.5C19.2607 7.13533 19.1159 6.78559 18.858 6.52773C18.6002 6.26987 18.2504 6.125 17.8857 6.125H6.88574Z" fill="#545454"/>
<path fill-rule="evenodd" clip-rule="evenodd" d="M4.13574 0.625C3.04172 0.625 1.99251 1.0596 1.21893 1.83318C0.445339 2.60677 0.0107422 3.65598 0.0107422 4.75V21.25C0.0107422 22.344 0.445339 23.3932 1.21893 24.1668C1.99251 24.9404 3.04172 25.375 4.13574 25.375H20.6357C21.7298 25.375 22.779 24.9404 23.5526 24.1668C24.3261 23.3932 24.7607 22.344 24.7607 21.25V4.75C24.7607 3.65598 24.3261 2.60677 23.5526 1.83318C22.779 1.0596 21.7298 0.625 20.6357 0.625H4.13574ZM20.6357 3.375H4.13574C3.77107 3.375 3.42133 3.51987 3.16347 3.77773C2.90561 4.03559 2.76074 4.38533 2.76074 4.75V21.25C2.76074 21.6147 2.90561 21.9644 3.16347 22.2223C3.42133 22.4801 3.77107 22.625 4.13574 22.625H20.6357C21.0004 22.625 21.3502 22.4801 21.608 22.2223C21.8659 21.9644 22.0107 21.6147 22.0107 21.25V4.75C22.0107 4.38533 21.8659 4.03559 21.608 3.77773C21.3502 3.51987 21.0004 3.375 20.6357 3.375Z" fill="#545454"/>
</svg>
