<svg width="44" height="40" viewBox="0 0 44 40" fill="none" xmlns="http://www.w3.org/2000/svg">
<path fill-rule="evenodd" clip-rule="evenodd" d="M22 39.6375C33.6156 39.6375 43.0323 30.7641 43.0323 19.8188C43.0323 8.87343 33.6156 6.4373e-05 22 6.4373e-05C10.3844 6.4373e-05 0.967671 8.87343 0.967671 19.8188C0.967671 30.7641 10.3844 39.6375 22 39.6375ZM14.9121 23.9501C14.5638 24.2899 14.3711 24.745 14.3755 25.2174C14.3798 25.6898 14.5809 26.1417 14.9354 26.4757C15.2899 26.8098 15.7695 26.9992 16.2708 27.0033C16.7721 27.0075 17.2551 26.8259 17.6157 26.4977L22 22.3664L26.3843 26.4977C26.5607 26.6697 26.7717 26.807 27.0049 26.9014C27.2382 26.9958 27.4891 27.0455 27.743 27.0476C27.9969 27.0497 28.2486 27.0041 28.4836 26.9135C28.7186 26.8229 28.9321 26.6892 29.1116 26.52C29.2911 26.3508 29.4331 26.1497 29.5292 25.9282C29.6254 25.7068 29.6738 25.4696 29.6716 25.2303C29.6693 24.9911 29.6166 24.7547 29.5164 24.5349C29.4162 24.3151 29.2705 24.1163 29.0879 23.9501L24.7036 19.8188L29.0879 15.6875C29.2705 15.5213 29.4162 15.3225 29.5164 15.1026C29.6166 14.8828 29.6693 14.6464 29.6716 14.4072C29.6738 14.1679 29.6254 13.9307 29.5292 13.7093C29.4331 13.4879 29.2911 13.2867 29.1116 13.1175C28.9321 12.9484 28.7186 12.8146 28.4836 12.724C28.2486 12.6334 27.9969 12.5878 27.743 12.5899C27.4891 12.592 27.2382 12.6417 27.0049 12.7361C26.7717 12.8305 26.5607 12.9678 26.3843 13.1399L22 17.2712L17.6157 13.1399C17.2551 12.8117 16.7721 12.6301 16.2708 12.6342C15.7695 12.6383 15.2899 12.8278 14.9354 13.1618C14.5809 13.4959 14.3798 13.9477 14.3755 14.4201C14.3711 14.8925 14.5638 15.3477 14.9121 15.6875L19.2964 19.8188L14.9121 23.9501Z" fill="black"/>
</svg>
