<svg width="33" height="33" viewBox="0 0 33 33" fill="none" xmlns="http://www.w3.org/2000/svg">
<path fill-rule="evenodd" clip-rule="evenodd" d="M30.711 16.8188C30.711 13.1356 29.2074 9.60324 26.5308 6.99881C23.8542 4.39437 20.224 2.93121 16.4388 2.93121C12.6536 2.93121 9.02336 4.39437 6.34679 6.99881C3.67023 9.60324 2.16654 13.1356 2.16654 16.8188C2.16654 20.5021 3.67023 24.0345 6.34679 26.6389C9.02336 29.2433 12.6536 30.7065 16.4388 30.7065C20.224 30.7065 23.8542 29.2433 26.5308 26.6389C29.2074 24.0345 30.711 20.5021 30.711 16.8188ZM0.127651 16.8188C0.127651 12.6094 3.28786 9.97531 6.34679 6.99881C9.40572 4.02231 12.1128 0.947266 16.4388 0.947266C20.7648 0.947266 24.9136 2.61944 27.9725 5.59594C31.0314 8.57244 32.7499 12.6094 32.7499 16.8188C32.7499 21.0283 31.0314 25.0653 27.9725 28.0418C24.9136 31.0182 20.7648 32.6904 16.4388 32.6904C12.1128 32.6904 7.96401 31.0182 4.90507 28.0418C1.84614 25.0653 0.127651 21.0283 0.127651 16.8188ZM15.4193 9.87503C15.4193 9.61194 15.5268 9.35963 15.7179 9.1736C15.9091 8.98757 16.1684 8.88306 16.4388 8.88306C16.7092 8.88306 16.9685 8.98757 17.1597 9.1736C17.3508 9.35963 17.4582 9.61194 17.4582 9.87503L17.4582 21.368L21.8337 17.1085C22.0251 16.9222 22.2848 16.8176 22.5555 16.8176C22.8262 16.8176 23.0858 16.9222 23.2772 17.1085C23.4687 17.2948 23.5762 17.5474 23.5762 17.8108C23.5762 18.0742 23.4687 18.3269 23.2772 18.5131L17.1606 24.465C17.0659 24.5574 16.9534 24.6307 16.8295 24.6807C16.7057 24.7307 16.5729 24.7564 16.4388 24.7564C16.3047 24.7564 16.1719 24.7307 16.0481 24.6807C15.9242 24.6307 15.8117 24.5574 15.717 24.465L9.60035 18.5131C9.40892 18.3269 9.30138 18.0742 9.30138 17.8108C9.30138 17.5474 9.40892 17.2948 9.60035 17.1085C9.79177 16.9222 10.0514 16.8176 10.3221 16.8176C10.5928 16.8176 10.8525 16.9222 11.0439 17.1085L15.4193 21.368L15.4193 9.87503Z" fill="black"/>
</svg>
