<svg width="28" height="28" viewBox="0 0 28 28" fill="none" xmlns="http://www.w3.org/2000/svg">
<path d="M21.125 5.73926H28V8.48926H25.25V26.3643C25.25 26.7289 25.1051 27.0787 24.8473 27.3365C24.5894 27.5944 24.2397 27.7393 23.875 27.7393H4.625C4.26033 27.7393 3.91059 27.5944 3.65273 27.3365C3.39487 27.0787 3.25 26.7289 3.25 26.3643V8.48926H0.5V5.73926H7.375V1.61426C7.375 1.24959 7.51987 0.899848 7.77773 0.641986C8.03559 0.384123 8.38533 0.239258 8.75 0.239258H19.75C20.1147 0.239258 20.4644 0.384123 20.7223 0.641986C20.9801 0.899848 21.125 1.24959 21.125 1.61426V5.73926ZM22.5 8.48926H6V24.9893H22.5V8.48926ZM10.125 12.6143H12.875V20.8643H10.125V12.6143ZM15.625 12.6143H18.375V20.8643H15.625V12.6143ZM10.125 2.98926V5.73926H18.375V2.98926H10.125Z" fill="#F24E1E"/>
</svg>
