<svg width="34" height="33" viewBox="0 0 34 33" fill="none" xmlns="http://www.w3.org/2000/svg">
<path fill-rule="evenodd" clip-rule="evenodd" d="M2.45466 16.6284C2.45466 20.3116 3.95834 23.844 6.63491 26.4485C9.31148 29.0529 12.9417 30.5161 16.7269 30.5161C20.5122 30.5161 24.1424 29.0529 26.8189 26.4485C29.4955 23.844 30.9992 20.3116 30.9992 16.6284C30.9992 12.9452 29.4955 9.41281 26.8189 6.80838C24.1424 4.20394 20.5122 2.74078 16.7269 2.74078C12.9417 2.74078 9.31148 4.20394 6.63491 6.80838C3.95834 9.41281 2.45466 12.9452 2.45466 16.6284ZM33.0381 16.6284C33.0381 20.8378 31.3196 24.8748 28.2606 27.8513C25.2017 30.8278 21.0529 32.5 16.7269 32.5C12.4009 32.5 8.25213 30.8278 5.1932 27.8513C2.13426 24.8748 0.415771 20.8378 0.415771 16.6284C0.415771 12.419 2.13426 8.38201 5.1932 5.40552C8.25213 2.42902 12.4009 0.756836 16.7269 0.756836C21.0529 0.756836 25.2017 2.42902 28.2606 5.40552C31.3196 8.38201 33.0381 12.419 33.0381 16.6284ZM17.7464 23.5722C17.7464 23.8353 17.639 24.0876 17.4478 24.2737C17.2566 24.4597 16.9973 24.5642 16.7269 24.5642C16.4565 24.5642 16.1972 24.4597 16.0061 24.2737C15.8149 24.0876 15.7075 23.8353 15.7075 23.5722V12.0792L11.332 16.3388C11.1406 16.525 10.881 16.6297 10.6102 16.6297C10.3395 16.6297 10.0799 16.525 9.88847 16.3388C9.69704 16.1525 9.5895 15.8999 9.5895 15.6364C9.5895 15.373 9.69704 15.1204 9.88847 14.9341L16.0051 8.98228C16.0998 8.8899 16.2123 8.81661 16.3362 8.7666C16.46 8.71659 16.5928 8.69085 16.7269 8.69085C16.861 8.69085 16.9938 8.71659 17.1176 8.7666C17.2415 8.81661 17.354 8.8899 17.4487 8.98228L23.5654 14.9341C23.7568 15.1204 23.8643 15.373 23.8643 15.6364C23.8643 15.8999 23.7568 16.1525 23.5654 16.3388C23.3739 16.525 23.1143 16.6297 22.8436 16.6297C22.5729 16.6297 22.3133 16.525 22.1218 16.3388L17.7464 12.0792V23.5722Z" fill="black"/>
</svg>
