<svg width="28" height="30" viewBox="0 0 28 30" fill="none" xmlns="http://www.w3.org/2000/svg">
<path d="M2.72305 13.1356L2.7166 13.1324C2.6167 13.7415 2.56836 14.3635 2.56836 14.979C2.56836 15.5301 2.61025 16.0844 2.6876 16.6258C2.61025 16.0876 2.57158 15.543 2.57158 14.9983C2.57158 14.3731 2.62314 13.7479 2.72305 13.1356ZM27.2249 18.6657C27.241 18.6786 27.2539 18.6915 27.27 18.7076C27.2475 18.6851 27.2249 18.6625 27.1991 18.6399L25.0883 16.8385V16.8417L27.2249 18.6657ZM9.93213 25.6267H9.92891L10.4284 28.3272C10.4349 28.3595 10.4413 28.3885 10.451 28.4175C10.4478 28.4014 10.4413 28.382 10.4381 28.3659L9.93213 25.6267ZM8.19189 8.01484L7.17998 8.84629L4.18936 7.78604C3.6415 8.52402 3.18066 9.3168 2.8165 10.1579L5.22383 12.2172L5.01113 13.5095C4.93057 13.9961 4.88867 14.4956 4.88867 14.9951C4.88867 15.4946 4.93057 15.9941 5.01113 16.4808L5.22061 17.7666L2.81328 19.8259C3.18066 20.6638 3.63828 21.4598 4.18613 22.1978L7.17676 21.1375L8.18867 21.9689C8.95889 22.6006 9.81933 23.0969 10.7442 23.4449L11.9721 23.9058L12.5489 27.0317C13.4591 27.1349 14.378 27.1349 15.2882 27.0317L15.865 23.8993L17.0864 23.4385C18.0049 23.0904 18.8589 22.5941 19.6227 21.9657L20.6346 21.1311L23.6445 22.201C24.1924 21.463 24.6532 20.6702 25.0174 19.8291L22.5843 17.7505L22.7938 16.4614C22.8743 15.9812 22.913 15.4882 22.913 14.9951C22.913 14.5053 22.8711 14.009 22.7938 13.5288L22.5843 12.2397L25.0174 10.1611C24.65 9.32324 24.1924 8.52725 23.6445 7.78926L20.6346 8.85918L19.6227 8.02451C18.8589 7.39609 18.0049 6.89981 17.0864 6.55176L15.8683 6.08447L15.2914 2.95205C14.3826 2.84892 13.4577 2.84892 12.5521 2.95205L11.9753 6.07803L10.7475 6.53887C9.81934 6.88691 8.96211 7.3832 8.19189 8.01484ZM13.8992 9.63584C14.8821 9.63584 15.807 9.88721 16.6159 10.3287C18.3852 11.2891 19.5872 13.1614 19.5872 15.3174C19.5872 18.4498 17.0478 20.9893 13.9153 20.9893C11.7594 20.9893 9.88701 19.7872 8.92666 18.018C8.48516 17.2123 8.23379 16.2874 8.23379 15.3013C8.23379 12.1721 10.77 9.63584 13.8992 9.63584ZM23.738 5.30137C23.9152 5.24014 24.0989 5.22725 24.2729 5.2627C24.0893 5.22402 23.8959 5.23047 23.709 5.29492L21.0857 6.22949C21.089 6.23272 21.0954 6.23594 21.0986 6.23916L23.738 5.30137ZM0.612207 18.6657L2.72305 16.861C2.72305 16.8546 2.71982 16.8449 2.71982 16.8385L0.612207 18.6399C0.383398 18.8365 0.254492 19.1201 0.251268 19.4134C0.260937 19.1298 0.389843 18.8559 0.612207 18.6657Z" fill="#545454" fill-opacity="0.15"/>
<path d="M0.257765 10.6575C0.241652 10.506 0.257765 10.3513 0.31255 10.2031L0.341553 10.1193C0.924131 8.49583 1.79415 6.99049 2.91001 5.67524L2.96802 5.60757C3.10321 5.44777 3.28384 5.3329 3.48588 5.27821C3.68793 5.22353 3.90183 5.23162 4.09917 5.30142L6.71919 6.23276C7.68037 5.44088 8.76605 4.81364 9.93218 4.37651L10.4381 1.63725C10.4763 1.43114 10.5763 1.24152 10.7248 1.09359C10.8733 0.94565 11.0633 0.846404 11.2696 0.809032L11.3566 0.792919C12.1988 0.640671 13.053 0.564096 13.9089 0.564111H13.8993C13.0388 0.564111 12.1784 0.641454 11.3405 0.792919L11.2535 0.809032C11.0472 0.846404 10.8572 0.94565 10.7087 1.09359C10.5602 1.24152 10.4602 1.43114 10.422 1.63725L9.91607 4.37329C8.74946 4.81157 7.6731 5.43355 6.7063 6.22632L4.0895 5.29497C3.89217 5.22517 3.67826 5.21708 3.47622 5.27177C3.27417 5.32645 3.09355 5.44132 2.95835 5.60112L2.90034 5.6688C1.77886 6.99331 0.918407 8.4854 0.335107 10.1064L0.306105 10.1902C0.254541 10.3417 0.238428 10.5028 0.257765 10.6575Z" fill="#545454" fill-opacity="0.15"/>
<path d="M8.24365 15.3174C8.24365 16.2938 8.4918 17.2155 8.92686 18.018C9.88721 19.7872 11.7596 20.9893 13.9155 20.9893C17.0479 20.9893 19.5874 18.4498 19.5874 15.3174C19.5874 13.1614 18.3854 11.2891 16.6161 10.3287C15.8137 9.89365 14.8952 9.64551 13.9155 9.64551C10.7831 9.64551 8.24365 12.185 8.24365 15.3174ZM17.5249 15.3174C17.5249 16.281 17.1479 17.1865 16.4679 17.8697C15.7847 18.5529 14.8791 18.9268 13.9155 18.9268C12.952 18.9268 12.0464 18.5529 11.3632 17.8697C11.0275 17.535 10.7612 17.1371 10.5798 16.6991C10.3984 16.2611 10.3054 15.7915 10.3062 15.3174C10.3062 14.3538 10.6832 13.4482 11.3632 12.765C11.6979 12.4293 12.0958 12.1631 12.5338 11.9817C12.9718 11.8003 13.4414 11.7073 13.9155 11.708C14.8791 11.708 15.7847 12.0851 16.4679 12.765C16.8036 13.0998 17.0698 13.4976 17.2512 13.9357C17.4326 14.3737 17.5256 14.8433 17.5249 15.3174Z" fill="#545454"/>
<path d="M11.2696 0.809032C11.0634 0.846405 10.8734 0.94565 10.7248 1.09359C10.5763 1.24152 10.4763 1.43114 10.4382 1.63725L9.93222 4.37651C8.76609 4.81364 7.68041 5.44088 6.71923 6.23276L4.09921 5.30142C3.90188 5.23162 3.68797 5.22353 3.48593 5.27821C3.28388 5.3329 3.10326 5.44777 2.96806 5.60757L2.91005 5.67524C1.78857 6.99975 0.924896 8.49507 0.341595 10.1193L0.312592 10.2031C0.257807 10.3513 0.241693 10.506 0.257807 10.6575C0.28681 10.9121 0.409271 11.1538 0.612299 11.331L2.71669 13.1325L2.72314 13.1357C2.62324 13.748 2.57167 14.3732 2.57167 14.9984C2.57167 15.543 2.61034 16.0909 2.68769 16.6258C2.69736 16.6967 2.71025 16.7676 2.71992 16.8385C2.71992 16.845 2.72314 16.8546 2.72314 16.8611L0.612299 18.6658C0.389936 18.8559 0.261028 19.1298 0.251362 19.4134C0.248138 19.5423 0.267475 19.6745 0.312592 19.8001L0.341595 19.8839C0.922709 21.5081 1.79288 23.0137 2.91005 24.328L2.96806 24.3957C3.10359 24.555 3.28422 24.6696 3.48614 24.7242C3.68807 24.7789 3.90182 24.7711 4.09921 24.7018L6.71923 23.7705C7.68603 24.5632 8.7624 25.1884 9.929 25.6267H9.93222L10.4382 28.366C10.4414 28.3821 10.4446 28.4014 10.4511 28.4175C10.4976 28.6124 10.5997 28.7895 10.745 28.9274C10.8904 29.0653 11.0726 29.158 11.2696 29.1942L11.3566 29.2103C13.0356 29.5132 14.8017 29.5132 16.4807 29.2103L16.5677 29.1942C16.7739 29.1568 16.9639 29.0576 17.1124 28.9096C17.261 28.7617 17.3609 28.5721 17.3991 28.366L17.9083 25.6138C19.0656 25.1754 20.1433 24.5506 21.0987 23.764L23.7381 24.7018C23.9354 24.7716 24.1493 24.7797 24.3514 24.725C24.5534 24.6703 24.734 24.5555 24.8692 24.3957L24.9272 24.328C26.0431 23.0127 26.9131 21.5074 27.4957 19.8839L27.5247 19.8001C27.5919 19.6129 27.6036 19.4102 27.5584 19.2164C27.5132 19.0226 27.4131 18.846 27.2701 18.7077C27.254 18.6948 27.2411 18.6787 27.225 18.6658L25.0884 16.8417V16.8385C25.1883 16.2327 25.2366 15.6171 25.2366 15.0016C25.2366 14.3829 25.1883 13.7641 25.0884 13.1615L27.225 11.3375C27.3842 11.2012 27.4982 11.0196 27.5517 10.817C27.6052 10.6144 27.5958 10.4002 27.5247 10.2031L27.4957 10.1193C26.9124 8.49507 26.0487 6.99653 24.9272 5.67524L24.8692 5.60757C24.7113 5.42388 24.5018 5.30464 24.273 5.26274C24.099 5.23052 23.9153 5.24018 23.7381 5.30142L21.0987 6.23921C21.0955 6.23598 21.0891 6.23276 21.0858 6.22954C20.1287 5.44643 19.062 4.82446 17.9083 4.3894L17.3991 1.63725C17.3609 1.43114 17.261 1.24152 17.1124 1.09359C16.9639 0.94565 16.7739 0.846405 16.5677 0.809032L16.4807 0.792919C15.6395 0.641455 14.7791 0.564112 13.9186 0.564112H13.909C13.0518 0.564112 12.1913 0.641455 11.3566 0.792919L11.2696 0.809032ZM12.5522 2.9521C13.4624 2.84897 14.3813 2.84897 15.2915 2.9521L15.8684 6.08452L17.0865 6.55181C18.005 6.89985 18.859 7.39614 19.6227 8.02456L20.6347 8.85923L23.6446 7.78931C24.1925 8.52729 24.6501 9.32329 25.0175 10.1612L22.5844 12.2398L22.7938 13.5289C22.8712 14.009 22.9131 14.5053 22.9131 14.9952C22.9131 15.4882 22.8744 15.9813 22.7938 16.4615L22.5844 17.7505L25.0175 19.8292C24.6533 20.6703 24.1925 21.463 23.6446 22.201L20.6347 21.1311L19.6227 21.9658C18.859 22.5942 18.005 23.0905 17.0865 23.4385L15.8651 23.8994L15.2883 27.0318C14.3827 27.1349 13.4578 27.1349 12.549 27.0318L11.9722 23.9058L10.7443 23.445C9.81943 23.0969 8.95898 22.6006 8.18876 21.969L7.17685 21.1375L4.18622 22.1978C3.63837 21.4598 3.18076 20.6638 2.81337 19.8259L5.2207 17.7667L5.01122 16.4808C4.93066 15.9942 4.88876 15.4947 4.88876 14.9952C4.88876 14.4957 4.93066 13.9961 5.01122 13.5095L5.22392 12.2172L2.8166 10.158C3.18154 9.3172 3.6422 8.52132 4.18945 7.78608L7.18007 8.84634L8.19199 8.01489C8.9622 7.38325 9.81943 6.88696 10.7476 6.53891L11.9754 6.07808L12.5522 2.9521Z" fill="#545454"/>
</svg>
