<svg width="34" height="34" viewBox="0 0 34 34" fill="none" xmlns="http://www.w3.org/2000/svg">
<path d="M13.6206 23.1265C13.7452 23.3004 13.9094 23.4421 14.0997 23.5398C14.29 23.6375 14.5008 23.6885 14.7147 23.6885C14.9286 23.6885 15.1394 23.6375 15.3297 23.5398C15.52 23.4421 15.6842 23.3004 15.8088 23.1265L24.7224 10.7677C24.8832 10.5434 24.7224 10.2302 24.4473 10.2302H22.4622C22.0305 10.2302 21.62 10.4376 21.366 10.7931L14.7168 20.0199L11.7033 15.8382C11.4494 15.4869 11.043 15.2753 10.6071 15.2753H8.62207C8.34696 15.2753 8.18613 15.5885 8.34696 15.8128L13.6206 23.1265Z" fill="#5B5B5B"/>
<path d="M32.5366 0.0273438H1.38564C0.636493 0.0273438 0.03125 0.632587 0.03125 1.38173V32.5327C0.03125 33.2818 0.636493 33.8871 1.38564 33.8871H32.5366C33.2858 33.8871 33.891 33.2818 33.891 32.5327V1.38173C33.891 0.632587 33.2858 0.0273438 32.5366 0.0273438ZM30.8436 30.8397H3.07863V3.07472H30.8436V30.8397Z" fill="#5B5B5B"/>
</svg>
